<svg version="1.2" baseProfile="tiny-ps" xmlns="http://www.w3.org/2000/svg" viewBox="0 0 500 500" width="500" height="500">
	<title>glyph-i.svg by D'Ascent</title>
	<style>
		tspan { white-space:pre }
		.s0 { fill: #000 } /*** yellow gold #bbad6e ***/
	</style>
	<path id="ishape" class="s0" d="m115.47 234.29c5.69 19.46 11.1 42.15 38.78 70.4c27.22 27.77 98.31 58.72 169.28 17.44c39.91-23.21 102.07-79.37 98.97-99.95c-3.09-20.58-73.29-48.35-112.01-19.8c-48.47 35.74-54.37 96.26-54.37 96.26c0 0-10.41 25-20.79 25.73c-8.96 0.63-18.09-22.98-18.09-22.98c0 0 36.62-125.54 86.22-143.57c44.95-16.34 164.85-5.68 176.24 37.56c11.39 43.25-90.38 149.85-149.24 176.54c-82.9 37.58-175.95-0.64-210.42-34.78c-34.47-34.14-54-125.07-54-125.07c47.95-20.4 43.72 2.75 49.41 22.22z" />
	<path id="idot" class="s0" d="m28.63 166.42c-2.78-11.17-0.04-41.96 14.9-51.76c14.93-9.79 45.07-9.4 60.63-1.69c15.56 7.71 3.58 36.14-8.03 46.9c-11.61 10.75-21.61 17.18-39.19 17.43c-17.58 0.25-25.53 0.29-28.31-10.88z" />
</svg>